<svg width="22" height="22" viewBox="0 0 22 22" fill="none" xmlns="http://www.w3.org/2000/svg">
<mask id="mask0_2849_12826" style="mask-type:alpha" maskUnits="userSpaceOnUse" x="1" y="0" width="23" height="22">
<rect x="1.1001" width="22" height="22" fill="#D9D9D9"/>
</mask>
<g mask="url(#mask0_2849_12826)">
<path d="M9.71655 6.00195C9.9318 6.00205 10.1186 6.07799 10.2703 6.22949V6.23047L14.3894 10.3496C14.4833 10.4437 14.5533 10.5462 14.5945 10.6572C14.6342 10.7643 14.653 10.8789 14.6531 11C14.6531 11.1213 14.6342 11.2365 14.5945 11.3438C14.5533 11.4548 14.4833 11.5573 14.3894 11.6514L10.2703 15.7705C10.1236 15.917 9.93839 15.9916 9.72241 15.9951C9.50403 15.9984 9.31536 15.9228 9.16284 15.7705H9.16187C9.01051 15.6188 8.93433 15.432 8.93433 15.2168C8.9344 15.0015 9.01037 14.8148 9.16187 14.6631H9.16284L12.825 11L9.16284 7.33789H9.16187C9.01544 7.19126 8.94173 7.00599 8.93823 6.79004C8.93493 6.57187 9.00983 6.3829 9.16187 6.23047L9.16284 6.22949C9.31457 6.07815 9.50133 6.00195 9.71655 6.00195Z" fill="#BDBDBD" stroke="#BDBDBD" stroke-width="0.2"/>
</g>
</svg>
