<svg xmlns="http://www.w3.org/2000/svg" width="44" height="44" viewBox="0 0 44 44" fill="none">
  <g clip-path="url(#sns-ig-clip)">
    <path d="M22.0001 0C16.0252 0 15.276 0.0253 12.9294 0.1324C10.5878 0.2392 8.9885 0.6112 7.5891 1.1549C6.1424 1.7171 4.9155 2.4694 3.6925 3.6925C2.4694 4.9155 1.7171 6.1425 1.155 7.5892C0.6111 8.9885 0.2393 10.5878 0.1323 12.9294C0.0253 15.276 0 16.0252 0 22.0001C0 27.9748 0.0253 28.724 0.1323 31.0706C0.2393 33.4122 0.6111 35.0115 1.155 36.4108C1.7172 37.8575 2.4695 39.0844 3.6925 40.3075C4.9156 41.5306 6.1424 42.2829 7.5891 42.8451C8.9885 43.3889 10.5878 43.7607 12.9294 43.8676C15.276 43.9747 16.0252 44 22.0001 44C27.9748 44 28.724 43.9747 31.0706 43.8676C33.4122 43.7608 35.0115 43.3889 36.4108 42.8451C37.8575 42.2829 39.0844 41.5306 40.3075 40.3075C41.5306 39.0844 42.2829 37.8575 42.8451 36.4108C43.3889 35.0115 43.7608 33.4122 43.8676 31.0706C43.9747 28.724 44 27.9748 44 22.0001C44 16.0252 43.9747 15.276 43.8676 12.9294C43.7608 10.5878 43.3889 8.9885 42.8451 7.5892C42.2829 6.1425 41.5306 4.9155 40.3075 3.6925C39.0844 2.4694 37.8575 1.7171 36.4108 1.1549C35.0115 0.6112 33.4122 0.2392 31.0706 0.1324C28.724 0.0253 27.9748 0 22.0001 0ZM22.0001 3.9639C27.8742 3.9639 28.5701 3.9864 30.8899 4.0922C33.0349 4.19 34.1998 4.5484 34.9749 4.8497C35.9999 5.2489 36.7348 5.7255 37.5045 6.4954C38.2745 7.2652 38.7511 7.9981 39.1503 9.025C39.4516 9.8002 39.81 10.9652 39.9078 13.1101C40.0136 15.4299 40.0361 16.1258 40.0361 22C40.0361 27.8742 40.0136 28.5701 39.9078 30.8899C39.81 33.0349 39.4516 34.1998 39.1503 34.9749C38.7511 36.0019 38.2745 36.7348 37.5045 37.5045C36.7348 38.2745 36.0019 38.7511 34.975 39.1503C34.1998 39.4516 33.0348 39.81 30.8899 39.9078C28.5704 40.0136 27.8747 40.0361 22 40.0361C16.1253 40.0361 15.4297 40.0136 13.1101 39.9077C10.9651 39.81 9.8002 39.4516 9.0251 39.1503C7.9981 38.7511 7.2652 38.2745 6.4955 37.5045C5.7256 36.7348 5.2489 36.0019 4.8497 34.975C4.5484 34.1998 4.1901 33.0348 4.0922 30.8899C3.9864 28.5701 3.9639 27.8742 3.9639 22C3.9639 16.1258 3.9864 15.4299 4.0922 13.1101C4.1901 10.9651 4.5484 9.8002 4.8497 9.0251C5.2489 7.9981 5.7256 7.2652 6.4954 6.4955C7.2652 5.7255 7.9981 5.2489 9.025 4.8497C9.8002 4.5484 10.9652 4.19 13.1101 4.0922C15.4299 3.9864 16.1258 3.9639 22.0001 3.9639Z" fill="white"/>
    <path d="M22.0005 29.3333C17.9503 29.3333 14.6671 26.05 14.6671 22C14.6671 17.9498 17.9503 14.6666 22.0005 14.6666C26.0505 14.6666 29.3338 17.9498 29.3338 22C29.3338 26.05 26.0505 29.3333 22.0005 29.3333ZM22.0005 10.7026C15.7611 10.7026 10.7031 15.7605 10.7031 22C10.7031 28.2393 15.7611 33.2972 22.0005 33.2972C28.2398 33.2972 33.2977 28.2393 33.2977 22C33.2977 15.7605 28.2398 10.7026 22.0005 10.7026ZM36.3841 10.2563C36.3841 11.7143 35.2021 12.8962 33.7441 12.8962C32.2861 12.8962 31.1041 11.7143 31.1041 10.2563C31.1041 8.7982 32.2861 7.6162 33.7441 7.6162C35.2021 7.6162 36.3841 8.7982 36.3841 10.2563Z" fill="white"/>
  </g>
  <defs>
    <clipPath id="sns-ig-clip">
      <rect width="44" height="44" fill="white"/>
    </clipPath>
  </defs>
</svg>
